<?xml version="1.0" standalone="no"?>
<!DOCTYPE svg PUBLIC "-//W3C//DTD SVG 20010904//EN"
 "http://www.w3.org/TR/2001/REC-SVG-20010904/DTD/svg10.dtd">
<svg version="1.0" xmlns="http://www.w3.org/2000/svg"
 width="36.000000pt" height="36.000000pt" viewBox="0 0 36.000000 36.000000"
 preserveAspectRatio="xMidYMid meet">

<g transform="translate(0.000000,36.000000) scale(0.100000,-0.100000)"
fill="#000000" stroke="none">
<path d="M95 332 c-94 -65 -121 -159 -67 -237 65 -93 152 -119 235 -68 92 55
123 160 69 238 -65 94 -159 121 -237 67z m147 -99 c21 -20 38 -44 38 -53 0
-25 -76 -94 -95 -86 -12 4 -15 13 -11 31 6 23 4 25 -32 25 -21 0 -47 7 -58 15
-19 15 -19 15 0 30 11 8 37 15 59 15 34 0 38 2 32 20 -7 22 1 40 18 40 6 0 28
-17 49 -37z"/>
</g>
</svg>
