<svg xmlns="http://www.w3.org/2000/svg" width="32" height="32" preserveAspectRatio="xMidYMid meet" version="1.0" viewBox="0 0 24 24"><g fill="#000" stroke="none"><path d="M75 231 c-45 -20 -70 -60 -70 -113 0 -43 4 -53 32 -79 57 -51 113 -51 164 0 50 50 50 107 1 162 -29 32 -89 47 -127 30z m90 -81 l29 -30 -29 -30 c-30 -31 -50 -35 -50 -9 0 8 -13 16 -30 19 -42 7 -40 34 3 38 18 2 30 8 27 13 -7 10 2 29 14 29 4 0 20 -13 36 -30z" transform="translate(0.000000,24.000000) scale(0.100000,-0.100000)"/></g></svg>