<svg id="Capa_1" enable-background="new 0 0 512 512" height="512" viewBox="0 0 512 512" width="512" xmlns="http://www.w3.org/2000/svg"><g><g><path d="m53.165 28.156h64.27v132.308h-64.27z" fill="#fccb88"/><path d="m79.821 167.966v303.753h352.359v-303.753l-176.18-93.26z" fill="#fccb88"/><path d="m106.346 282.532c0-51.459 10.09-100.136 28.045-143.453l-54.571 28.887v303.752h95.283c-42.512-45.906-68.757-109.313-68.757-189.186z" fill="#fab659"/><path d="m74.531 69.793c0-14.953 3.603-29.087 10.002-41.638h-31.368v132.308h64.27v-12.595c-25.875-16.87-42.904-45.54-42.904-78.075z" fill="#fab659"/><g fill="#ff9dd3"><path d="m475.972 148.535-198.076-120.112c-13.457-8.16-30.335-8.162-43.792-.001l-198.076 120.113c-11.351 6.883-14.973 21.665-8.09 33.017l18.866 31.111c6.883 11.351 21.665 14.973 33.017 8.09l176.179-106.835 176.18 106.834c11.351 6.883 26.133 3.261 33.017-8.09l18.865-31.11c6.883-11.351 3.261-26.133-8.09-33.017z"/><path d="m440.683 438.937h-369.366c-10.923 0-19.777 8.855-19.777 19.777v26.009c0 10.923 8.854 19.777 19.777 19.777h369.366c10.923 0 19.777-8.854 19.777-19.777v-26.009c0-10.922-8.854-19.777-19.777-19.777z"/><path d="m122.713 7.5h-74.827c-6.798 0-12.308 5.51-12.308 12.308v16.695c0 6.798 5.51 12.308 12.308 12.308h74.827c6.798 0 12.308-5.51 12.308-12.308v-16.695c0-6.797-5.511-12.308-12.308-12.308z"/></g><path d="m179.003 61.836-142.975 86.699c-11.351 6.883-14.973 21.666-8.09 33.017l18.865 31.111c6.883 11.352 21.665 14.973 33.017 8.09l35.636-21.609c11.58-51.944 33.714-98.84 63.547-137.308z" fill="#ff88ca"/><path d="m149.533 438.937h-78.216c-10.923 0-19.777 8.854-19.777 19.777v26.009c0 10.922 8.854 19.777 19.777 19.777h140.815c-24.448-17.716-45.695-39.606-62.599-65.563z" fill="#ff88ca"/><path d="m98.857 7.5h-50.971c-6.798 0-12.308 5.511-12.308 12.308v16.695c0 6.797 5.51 12.308 12.308 12.308h29.069c3.666-15.607 11.336-29.732 21.902-41.311z" fill="#ff88ca"/></g><g><path d="m294.087 232.785c-.026-.068-.053-.136-.081-.204-1.358-3.305-4.559-5.407-8.119-5.435-3.574.003-6.756 2.143-8.109 5.45-.023.056-.045.112-.067.169l-21.034 55.228c-1.474 3.871.469 8.204 4.339 9.678 3.872 1.474 8.204-.469 9.678-4.34l3.399-8.924h23.441l3.36 8.903c1.134 3.003 3.987 4.854 7.019 4.854 5.205 0 8.875-5.223 7.016-10.15zm-14.279 36.623 6.062-15.915 6.006 15.915z"/><path d="m163.932 242.708c7.618-2.295 14.733 3.294 14.957 3.473 3.17 2.627 7.872 2.208 10.526-.95 2.665-3.17 2.255-7.901-.915-10.567-.537-.452-13.336-11.005-28.894-6.319-16.844 5.074-19.799 25.732-6.465 34.426 1.995 1.299 15.433 6.49 17.797 7.362 1.825.673 7.723 3.172 7.027 7.071-.523 2.929-4.143 5.958-9.295 5.958-5.429 0-10.649-2.183-13.963-5.84-2.781-3.068-7.524-3.303-10.594-.521-3.069 2.781-3.302 7.524-.521 10.594 6.201 6.842 15.342 10.767 25.078 10.767 25.471 0 35.568-31.734 7.46-42.103-6.795-2.506-13.127-5.234-15.161-6.123-2.119-1.771-1.546-5.87 2.963-7.228z"/><path d="m366.943 228.503c-3.471-2.259-8.118-1.278-10.377 2.194l-11.47 17.62-11.603-17.77c-2.265-3.469-6.913-4.443-10.38-2.18-3.468 2.265-4.444 6.912-2.179 10.38l16.667 25.525-.065 26.372c-.01 4.142 3.339 7.508 7.481 7.518h.019c4.133 0 7.489-3.346 7.5-7.481l.065-26.397 16.537-25.403c2.259-3.472 1.276-8.118-2.195-10.378z"/><path d="m226.506 298.163c4.142 0 7.5-3.357 7.5-7.5v-48.516h8.03c4.142 0 7.5-3.358 7.5-7.5s-3.358-7.5-7.5-7.5h-30.936c-4.142 0-7.5 3.358-7.5 7.5s3.358 7.5 7.5 7.5h7.905v48.516c.001 4.142 3.359 7.5 7.501 7.5z"/><path d="m312.119 330.976-9.563 33.548c-13.352-45.25-9.064-31.116-10.003-33.888-2.849-8.49-15.208-7.738-16.933 1.219l-9.846 54.549c-.736 4.076 1.973 7.977 6.049 8.713 4.073.735 7.977-1.972 8.713-6.049l5.17-28.647 8.56 29.013c.026.089.054.177.083.265 1.202 3.579 4.537 5.976 8.309 5.976h.045c3.79-.02 7.123-2.455 8.293-6.06.028-.085.054-.172.079-.259l8.263-28.985 5.499 28.774c.778 4.068 4.708 6.737 8.774 5.959 4.069-.777 6.736-4.706 5.959-8.774l-10.446-54.656c-.794-3.898-4.123-6.777-8.095-7.001-4.159-.236-7.817 2.486-8.91 6.303z"/><path d="m166.558 395.673c4.142 0 7.5-3.358 7.5-7.5v-56.016c0-4.142-3.358-7.5-7.5-7.5s-7.5 3.358-7.5 7.5v19.547h-23.764v-19.547c0-4.142-3.358-7.5-7.5-7.5s-7.5 3.358-7.5 7.5v56.016c0 4.142 3.358 7.5 7.5 7.5s7.5-3.358 7.5-7.5v-21.469h23.764v21.469c0 4.142 3.357 7.5 7.5 7.5z"/><path d="m384.206 340.168c4.142 0 7.5-3.358 7.5-7.5s-3.358-7.5-7.5-7.5h-23.388c-4.142 0-7.5 3.358-7.5 7.5v55.505c0 4.142 3.358 7.5 7.5 7.5h23.388c4.142 0 7.5-3.358 7.5-7.5s-3.358-7.5-7.5-7.5h-15.888v-12.753h14.163c4.142 0 7.5-3.358 7.5-7.5s-3.358-7.5-7.5-7.5h-14.163v-12.752z"/><path d="m186.78 360.165c0 19.579 15.929 35.508 35.508 35.508s35.508-15.929 35.508-35.508-15.929-35.508-35.508-35.508c-19.58 0-35.508 15.928-35.508 35.508zm35.508-20.508c11.308 0 20.508 9.2 20.508 20.508 0 11.309-9.2 20.508-20.508 20.508s-20.508-9.2-20.508-20.508c0-11.309 9.2-20.508 20.508-20.508z"/><path d="m40.391 216.551c6.636 10.944 19.226 16.785 31.93 14.775v200.111h-1.004c-15.041 0-27.277 12.236-27.277 27.277v26.009c0 15.041 12.237 27.277 27.277 27.277h369.366c15.041 0 27.277-12.237 27.277-27.277v-26.009c0-15.041-12.236-27.277-27.277-27.277h-1.003v-200.11c12.676 2.005 25.282-3.813 31.93-14.776l18.865-31.11c9.017-14.869 4.255-34.302-10.614-43.318l-49.106-29.778c-3.542-2.148-8.154-1.017-10.302 2.524s-1.018 8.154 2.524 10.302l49.106 29.778c7.796 4.728 10.293 14.917 5.565 22.715l-18.865 31.11c-4.728 7.796-14.917 10.293-22.715 5.565l-176.179-106.835c-2.39-1.449-5.388-1.449-7.777 0l-103.287 62.632c-3.542 2.148-4.672 6.76-2.524 10.302 2.147 3.542 6.76 4.672 10.302 2.524l99.397-60.274 168.68 102.287v206.462h-337.359v-206.462c8.494-5.15 35.006-21.227 43.96-26.657 3.559-2.158 4.663-6.778 2.524-10.302-2.147-3.542-6.759-4.672-10.302-2.524l-47.572 28.847c-7.798 4.728-17.986 2.231-22.715-5.565l-18.866-31.111c-4.728-7.797-2.231-17.987 5.565-22.715 14.611-8.86 198.077-120.113 198.077-120.113 11.105-6.735 24.905-6.735 36.014.001l123.876 75.118c3.542 2.148 8.154 1.017 10.302-2.524 2.148-3.542 1.018-8.154-2.524-10.302l-123.875-75.118c-15.907-9.646-35.667-9.646-51.569 0l-105.282 63.841v-29.673c9.879-1.109 17.586-9.505 17.586-19.675v-16.695c.001-10.922-8.885-19.808-19.807-19.808h-74.827c-10.923 0-19.808 8.886-19.808 19.808v16.695c0 10.17 7.708 18.566 17.587 19.675v77.742l-13.525 8.201c-14.869 9.017-19.63 28.449-10.614 43.318zm412.569 242.163v26.009c0 6.77-5.507 12.277-12.277 12.277h-369.366c-6.77 0-12.277-5.508-12.277-12.277v-26.009c0-6.77 5.508-12.277 12.277-12.277h369.366c6.77 0 12.277 5.507 12.277 12.277zm-392.296-402.403h49.27v38.636l-49.27 29.876zm-17.586-19.808v-16.695c0-2.651 2.157-4.808 4.808-4.808h74.827c2.651 0 4.808 2.157 4.808 4.808v16.695c0 2.651-2.157 4.808-4.808 4.808-21.765 0-53.103 0-74.827 0-2.652 0-4.808-2.157-4.808-4.808z"/></g></g></svg>